<svg width="150" height="150" viewBox="0 0 150 150" fill="none" xmlns="http://www.w3.org/2000/svg">
<path d="M0 75C0 116.421 33.5786 150 75 150C116.421 150 150 116.421 150 75C150 33.5786 116.421 0 75 0C33.5786 0 0 33.5786 0 75Z" fill="#F03E2F"/>
<path d="M49.4225 44.1628C49.4225 55.1613 56.3358 61.7054 70.1763 65.1562L84.8425 68.497C97.9413 71.4529 105.918 78.7944 105.918 90.7553C106.02 95.9661 104.296 101.053 101.034 105.163C101.034 93.2299 94.7506 86.7821 79.5946 82.9051L65.1943 79.688C53.6629 77.1034 44.7624 71.0679 44.7624 58.0759C44.7017 53.0588 46.3411 48.1643 49.4225 44.1628Z" fill="white"/>
<path d="M92.0225 87.8271C98.278 91.7591 101.021 97.2584 101.021 105.15C95.843 111.666 86.7466 115.323 76.0549 115.323C58.058 115.323 45.463 106.621 42.6641 91.4979H59.9472C62.1724 98.4407 68.064 101.658 75.9289 101.658C85.5291 101.658 91.9106 96.6259 92.0365 87.7996" fill="#F9B1AB"/>
<path d="M58.4071 60.4682C55.5506 58.8004 53.207 56.404 51.6252 53.5332C50.0434 50.6624 49.2822 47.4244 49.4227 44.1629C54.4187 37.7013 63.1092 33.7556 73.703 33.7556C92.0358 33.7556 102.644 43.2693 105.261 56.66H88.6351C86.8018 51.3807 82.2117 47.27 73.843 47.27C64.9005 47.27 58.7989 52.3843 58.4491 60.4682" fill="#F9B1AB"/>
</svg>
